<svg xmlns="http://www.w3.org/2000/svg" viewBox="0 0 500 420.0"><rect x="0" y="0" width="500" height="420.0" fill="#ffffff"/><rect x="95" y="41.0" width="15" height="48" fill="#c6af19"/><rect x="95" y="89.0" width="15" height="48" fill="#4363d8"/><rect x="110" y="191.0" width="15" height="62" fill="#911eb4"/><rect x="95" y="157.0" width="15" height="96" fill="#f58231"/><rect x="95" y="253.0" width="15" height="48" fill="#207e5e"/><rect x="95" y="321.0" width="15" height="48" fill="#f032e6"/><rect x="80" y="7.0" width="15" height="396" fill="#3cb44b"/><text font-size="14" fill="#3cb44b" x="130" y="19.0">+ FIP ~ 0x90000, 589824</text><text font-size="14" fill="#c6af19" x="130" y="53.0">+ FIP Header ~ 0x200, 512</text><text font-size="14" fill="#c6af19" x="130" y="87.0">- FIP Header</text><text font-size="14" fill="#4363d8" x="130" y="101.0">+ BL1 ~ 0x4000, 16384</text><text font-size="14" fill="#4363d8" x="130" y="135.0">- BL1</text><text font-size="14" fill="#f58231" x="130" y="169.0">+ BL2_DTB ~ 0x8000, 32768</text><text font-size="14" fill="#911eb4" x="130" y="203.0">+ BL2 ~ 0x7f00, 32512</text><text font-size="14" fill="#911eb4" x="130" y="237.0">- BL2</text><text font-size="14" fill="#f58231" x="130" y="251.0">- BL2_DTB</text><text font-size="14" fill="#207e5e" x="130" y="265.0">+ Trusted OS ~ 0x20000, 131072</text><text font-size="14" fill="#207e5e" x="130" y="299.0">- Trusted OS</text><text font-size="14" fill="#f032e6" x="130" y="333.0">+ Non-secure Payload ~ 0x40000, 262144</text><text font-size="14" fill="#f032e6" x="130" y="367.0">- Non-secure Payload</text><text font-size="14" fill="#3cb44b" x="130" y="401.0">- FIP</text><text font-size="14" fill="#000000" x="0" y="19.0">0x00000000</text><text font-size="14" fill="#000000" x="0" y="53.0">0x00000200</text><text font-size="10" fill="#000000" x="5" y="36.0">~ 0x200, 512</text><text font-size="14" fill="#000000" x="0" y="87.0">0x000003ff</text><text font-size="10" fill="#000000" x="5" y="70.0">~ 0x200, 512</text><text font-size="14" fill="#000000" x="0" y="101.0">0x00000400</text><text font-size="14" fill="#000000" x="0" y="135.0">0x000043ff</text><text font-size="10" fill="#000000" x="5" y="118.0">~ 0x4000, 16384</text><text font-size="14" fill="#000000" x="0" y="169.0">0x00005000</text><text font-size="10" fill="#000000" x="5" y="152.0">~ 0xc00, 3072</text><text font-size="14" fill="#000000" x="0" y="203.0">0x00005100</text><text font-size="10" fill="#000000" x="5" y="186.0">~ 0x100, 256</text><text font-size="14" fill="#000000" x="0" y="251.0">0x0000cfff</text><text font-size="10" fill="#000000" x="5" y="227.0">~ 0x7f00, 32512</text><text font-size="14" fill="#000000" x="0" y="265.0">0x0000d000</text><text font-size="14" fill="#000000" x="0" y="299.0">0x0002cfff</text><text font-size="10" fill="#000000" x="5" y="282.0">~ 0x20000, 131072</text><text font-size="14" fill="#000000" x="0" y="333.0">0x0002e000</text><text font-size="10" fill="#000000" x="5" y="316.0">~ 0x1000, 4096</text><text font-size="14" fill="#000000" x="0" y="367.0">0x0006dfff</text><text font-size="10" fill="#000000" x="5" y="350.0">~ 0x40000, 262144</text><text font-size="14" fill="#000000" x="0" y="401.0">0x0008ffff</text><text font-size="10" fill="#000000" x="5" y="384.0">~ 0x22000, 139264</text></svg>