<svg xmlns="http://www.w3.org/2000/svg" viewBox="0 0 300 440.0"><rect x="0" y="0" width="300" height="440.0" fill="#ffffff"/><rect x="95" y="68" width="15" height="34" fill="#c6af19"/><rect x="95" y="136" width="15" height="34" fill="#4363d8"/><rect x="110" y="238" width="15" height="34" fill="#911eb4"/><rect x="95" y="204" width="15" height="68" fill="#f58231"/><rect x="95" y="300" width="15" height="34" fill="#46f0f0"/><rect x="95" y="368" width="15" height="34" fill="#f032e6"/><rect x="80" y="34" width="15" height="402" fill="#3cb44b"/><text font-size="14" fill="#3cb44b" x="130" y="39.0">+ FIP [0x90000, 589824]</text><text font-size="14" fill="#c6af19" x="130" y="73.0">+ FIP Header [0x100, 256]</text><text font-size="14" fill="#c6af19" x="130" y="107.0">- FIP Header</text><text font-size="14" fill="#4363d8" x="130" y="141.0">+ BL1 [0x4000, 16384]</text><text font-size="14" fill="#4363d8" x="130" y="175.0">- BL1</text><text font-size="14" fill="#f58231" x="130" y="209.0">+ BL2_DTB [0x8000, 32768]</text><text font-size="14" fill="#911eb4" x="130" y="243.0">+ BL2 [0x7f00, 32512]</text><text font-size="14" fill="#911eb4" x="130" y="277.0">- BL2</text><text font-size="14" fill="#f58231" x="130" y="291.0">- BL2_DTB</text><text font-size="14" fill="#46f0f0" x="130" y="305.0">+ Trusted OS [0x20000, 131072]</text><text font-size="14" fill="#46f0f0" x="130" y="339.0">- Trusted OS</text><text font-size="14" fill="#f032e6" x="130" y="373.0">+ Non-secure Payload [0x40000, 262144]</text><text font-size="14" fill="#f032e6" x="130" y="407.0">- Non-secure Payload</text><text font-size="14" fill="#3cb44b" x="130" y="441.0">- FIP</text><text font-size="14" fill="#000000" x="0" y="39.0">0x00000000</text><text font-size="14" fill="#000000" x="0" y="73.0">0x00000200</text><text font-size="14" fill="#000000" x="0" y="107.0">0x000002ff</text><text font-size="14" fill="#000000" x="0" y="141.0">0x00000400</text><text font-size="14" fill="#000000" x="0" y="175.0">0x000043ff</text><text font-size="14" fill="#000000" x="0" y="209.0">0x00005000</text><text font-size="14" fill="#000000" x="0" y="243.0">0x00005100</text><text font-size="14" fill="#000000" x="0" y="277.0">0x0000cfff</text><text font-size="14" fill="#000000" x="0" y="305.0">0x0000d000</text><text font-size="14" fill="#000000" x="0" y="339.0">0x0002cfff</text><text font-size="14" fill="#000000" x="0" y="373.0">0x0002e000</text><text font-size="14" fill="#000000" x="0" y="407.0">0x0006dfff</text><text font-size="14" fill="#000000" x="0" y="441.0">0x00090000</text></svg>