<svg xmlns="http://www.w3.org/2000/svg" viewBox="0 0 300 440.0"><rect x="0" y="0" width="300" height="440.0" fill="#ffffff"/><rect x="95" y="61.0" width="15" height="48" fill="#c6af19"/><rect x="95" y="109.0" width="15" height="48" fill="#4363d8"/><rect x="110" y="211.0" width="15" height="62" fill="#911eb4"/><rect x="95" y="177.0" width="15" height="96" fill="#f58231"/><rect x="95" y="273.0" width="15" height="48" fill="#46f0f0"/><rect x="95" y="341.0" width="15" height="48" fill="#f032e6"/><rect x="80" y="27.0" width="15" height="396" fill="#3cb44b"/><text font-size="14" fill="#3cb44b" x="130" y="39.0">+ FIP [0x90000, 589824]</text><text font-size="14" fill="#c6af19" x="130" y="73.0">+ FIP Header [0x200, 512]</text><text font-size="14" fill="#c6af19" x="130" y="107.0">- FIP Header</text><text font-size="14" fill="#4363d8" x="130" y="121.0">+ BL1 [0x4000, 16384]</text><text font-size="14" fill="#4363d8" x="130" y="155.0">- BL1</text><text font-size="14" fill="#f58231" x="130" y="189.0">+ BL2_DTB [0x8000, 32768]</text><text font-size="14" fill="#911eb4" x="130" y="223.0">+ BL2 [0x7f00, 32512]</text><text font-size="14" fill="#911eb4" x="130" y="257.0">- BL2</text><text font-size="14" fill="#f58231" x="130" y="271.0">- BL2_DTB</text><text font-size="14" fill="#46f0f0" x="130" y="285.0">+ Trusted OS [0x20000, 131072]</text><text font-size="14" fill="#46f0f0" x="130" y="319.0">- Trusted OS</text><text font-size="14" fill="#f032e6" x="130" y="353.0">+ Non-secure Payload [0x40000, 262144]</text><text font-size="14" fill="#f032e6" x="130" y="387.0">- Non-secure Payload</text><text font-size="14" fill="#3cb44b" x="130" y="421.0">- FIP</text><text font-size="14" fill="#000000" x="0" y="39.0">0x00000000</text><text font-size="14" fill="#000000" x="0" y="73.0">0x00000200</text><text font-size="14" fill="#000000" x="0" y="107.0">0x000003ff</text><text font-size="14" fill="#000000" x="0" y="121.0">0x00000400</text><text font-size="14" fill="#000000" x="0" y="155.0">0x000043ff</text><text font-size="14" fill="#000000" x="0" y="189.0">0x00005000</text><text font-size="14" fill="#000000" x="0" y="223.0">0x00005100</text><text font-size="14" fill="#000000" x="0" y="271.0">0x0000cfff</text><text font-size="14" fill="#000000" x="0" y="285.0">0x0000d000</text><text font-size="14" fill="#000000" x="0" y="319.0">0x0002cfff</text><text font-size="14" fill="#000000" x="0" y="353.0">0x0002e000</text><text font-size="14" fill="#000000" x="0" y="387.0">0x0006dfff</text><text font-size="14" fill="#000000" x="0" y="421.0">0x00090000</text></svg>